HIERARCHY
ROOT root
{
	OFFSET 0.000000 0.000000 0.000000
	CHANNELS 6 Xposition Yposition Zposition Zrotation Yrotation Xrotation
	JOINT lhip
	{
		OFFSET 0.058581 -0.082280 -0.017664
		CHANNELS 3 Zrotation Yrotation Xrotation
		JOINT lknee
		{
			OFFSET 0.043451 -0.386469 0.008037
			CHANNELS 3 Zrotation Yrotation Xrotation
			JOINT lankle
			{
				OFFSET -0.014790 -0.426874 -0.037428
				CHANNELS 3 Zrotation Yrotation Xrotation
				JOINT ltoe
				{
					OFFSET 0.041054 -0.060286 0.122042
					CHANNELS 3 Zrotation Yrotation Xrotation
					End Site
					{
						OFFSET 0.000000 0.000000 0.000000
					}
				}
			}
		}
	}
	JOINT rhip
	{
		OFFSET -0.060310 -0.090513 -0.013543
		CHANNELS 3 Zrotation Yrotation Xrotation
		JOINT rknee
		{
			OFFSET -0.043257 -0.383688 -0.004843
			CHANNELS 3 Zrotation Yrotation Xrotation
			JOINT rankle
			{
				OFFSET 0.019056 -0.420046 -0.034562
				CHANNELS 3 Zrotation Yrotation Xrotation
				JOINT rtoe
				{
					OFFSET -0.034840 -0.062106 0.130323
					CHANNELS 3 Zrotation Yrotation Xrotation
					End Site
					{
						OFFSET 0.000000 0.000000 0.000000
					}
				}
			}
		}
	}
	JOINT lowerback
	{
		OFFSET 0.004439 0.124404 -0.038385
		CHANNELS 3 Zrotation Yrotation Xrotation
		JOINT upperback
		{
			OFFSET 0.004488 0.137956 0.026820
			CHANNELS 3 Zrotation Yrotation Xrotation
			JOINT chest
			{
				OFFSET -0.002265 0.056032 0.002855
				CHANNELS 3 Zrotation Yrotation Xrotation
				JOINT lowerneck
				{
					OFFSET -0.013390 0.211636 -0.033468
					CHANNELS 3 Zrotation Yrotation Xrotation
					JOINT upperneck
					{
						OFFSET 0.010113 0.088937 0.050410
						CHANNELS 3 Zrotation Yrotation Xrotation
						End Site
						{
							OFFSET 0.000000 0.000000 0.000000
						}
					}
				}
				JOINT lclavicle
				{
					OFFSET 0.071702 0.114000 -0.018898
					CHANNELS 3 Zrotation Yrotation Xrotation
					JOINT lshoulder
					{
						OFFSET 0.122921 0.045205 -0.019046
						CHANNELS 3 Zrotation Yrotation Xrotation
						JOINT lelbow
						{
							OFFSET 0.255332 -0.015649 -0.022946
							CHANNELS 3 Zrotation Yrotation Xrotation
							JOINT lwrist
							{
								OFFSET 0.265709 0.012698 -0.007375
								CHANNELS 3 Zrotation Yrotation Xrotation
								End Site
								{
									OFFSET 0.000000 0.000000 0.000000
								}
							}
						}
					}
				}
				JOINT rclavicle
				{
					OFFSET -0.082954 0.112472 -0.023707
					CHANNELS 3 Zrotation Yrotation Xrotation
					JOINT rshoulder
					{
						OFFSET -0.113228 0.046853 -0.008472
						CHANNELS 3 Zrotation Yrotation Xrotation
						JOINT relbow
						{
							OFFSET -0.260127 -0.014369 -0.031269
							CHANNELS 3 Zrotation Yrotation Xrotation
							JOINT rwrist
							{
								OFFSET -0.269108 0.006794 -0.006027
								CHANNELS 3 Zrotation Yrotation Xrotation
								End Site
								{
									OFFSET 0.000000 0.000000 0.000000
								}
							}
						}
					}
				}
			}
		}
	}
}
MOTION
Frames: 10
Frame Time: 0.033333
0.477457 0.665360 0.744065 -27.748329 -4.331165 82.946067 6.997990 -12.735808 -35.626959 -8.160686 5.510125 87.562408 0.743259 20.589222 -43.625565 0.000000 -0.000000 0.000000 -28.154581 -9.683168 -45.277724 2.936365 0.237950 81.863902 12.265796 -3.487322 -26.467133 0.000000 -0.000000 0.000000 -3.165116 9.077190 28.620774 2.482095 2.296329 3.458473 1.272221 -2.773093 4.371485 -6.377266 16.500653 -25.556208 -5.234433 8.688456 -5.012624 -17.512199 -10.159619 -2.784256 -58.058833 -19.619174 15.483092 158.496751 -63.601037 -111.691145 56.001139 -20.811599 -6.456460 26.237736 10.006183 -2.375410 56.265530 11.823123 5.658220 -40.704481 35.735194 -35.575327 -1.377747 0.504487 -14.574276 
0.478108 0.664356 0.728575 -28.348820 -3.877471 81.599343 7.385821 -12.238275 -35.930731 -7.734099 5.917151 91.621691 0.159279 20.065832 -44.463247 0.000000 -0.000000 0.000000 -28.409191 -9.503714 -45.943141 2.328933 0.149454 84.841633 12.130519 -2.022616 -27.090836 0.000000 -0.000000 0.000000 -2.391005 8.064582 31.312897 2.473354 2.092558 3.288021 1.172934 -2.040877 3.504124 -6.649279 16.340645 -25.273247 -5.143497 8.023180 -5.977631 -16.987208 -11.515345 -2.950014 -57.554949 -20.044707 15.179444 157.148004 -62.155850 -110.286034 55.880961 -20.944246 -6.382612 26.062462 12.114933 -1.975463 55.523664 11.298876 5.244307 -41.911737 35.204685 -36.703143 -2.320003 0.343167 -15.599844 
0.478407 0.662910 0.715520 -28.938150 -3.584547 80.440034 7.483766 -11.994620 -36.105237 -7.215853 6.249046 95.013080 -0.327836 20.065013 -44.932375 0.000000 -0.000000 0.000000 -28.473456 -9.352706 -46.521697 2.149479 0.428035 87.216888 12.147851 -1.381028 -27.531519 0.000000 -0.000000 0.000000 -1.903343 6.769143 33.453607 2.219850 1.581930 3.162371 0.912330 -1.175884 3.013389 -6.686425 16.114481 -25.476773 -4.608835 7.351821 -6.754568 -15.989763 -12.049811 -3.769936 -56.377013 -20.451720 14.578617 156.933498 -60.803709 -110.094604 56.040686 -20.573104 -6.188488 25.991528 13.551917 -2.071098 55.150171 11.390324 4.985913 -42.394139 35.208878 -37.567055 -2.876365 0.189121 -17.147779 
0.478374 0.659049 0.700616 -29.558244 -2.950553 79.557226 7.662700 -11.576822 -36.375365 -6.938036 6.030727 98.832202 -0.928079 19.967796 -45.928718 0.000000 -0.000000 0.000000 -28.422423 -9.669323 -47.362201 2.368453 0.725947 89.714803 11.917120 -0.546107 -27.937216 0.000000 -0.000000 0.000000 -1.063009 4.548909 36.613290 1.611847 1.044397 -0.575491 0.725839 -0.089234 4.089244 -6.502817 14.179089 -25.523834 -3.106550 6.133803 -8.172733 -15.301424 -11.803149 -5.025853 -53.800805 -20.881653 12.982690 157.761905 -59.069764 -110.499233 55.959648 -20.357033 -6.243825 25.881712 14.506730 -2.005523 55.148252 11.710421 4.312018 -42.730723 35.970322 -37.847133 -4.399142 -0.399658 -18.136787 
0.478446 0.658488 0.696865 -29.993459 -2.745124 79.314648 7.853838 -11.267001 -36.406138 -6.997593 6.007218 99.834068 -1.282883 19.757477 -46.209688 0.000000 -0.000000 0.000000 -28.050868 -9.196081 -47.690933 2.323078 1.094377 90.285327 11.831934 -0.623105 -28.116659 0.000000 -0.000000 0.000000 -0.896908 4.350747 37.325810 1.695091 1.199171 -0.939612 0.817341 -0.053919 3.956209 -6.331908 13.254262 -25.811618 -2.712303 5.271383 -8.625014 -15.046524 -12.061912 -5.378951 -52.947403 -21.081649 12.476727 157.556485 -58.389461 -110.189865 56.145097 -20.334925 -6.152898 25.600564 14.831219 -2.324456 55.200944 11.538015 4.247782 -43.091901 36.144080 -38.031969 -4.615695 -0.482516 -18.880142 
0.478177 0.656507 0.691096 -30.510751 -2.233114 78.425918 8.100525 -10.901542 -35.778541 -7.013047 5.860271 101.445806 -1.803133 19.672068 -46.663509 0.000000 -0.000000 0.000000 -27.616494 -8.799568 -47.592828 2.649282 1.402835 91.255794 11.727951 -0.629532 -28.059016 0.000000 -0.000000 0.000000 -0.404301 4.084400 38.842959 2.087746 1.500670 -1.072564 1.084178 -0.331133 3.462159 -5.891132 10.978623 -26.638043 -2.093002 3.680265 -9.541033 -14.630844 -12.760315 -5.999033 -51.023260 -21.463222 11.216705 157.112031 -56.847376 -110.008353 56.331058 -20.455120 -5.819685 24.863023 15.666854 -3.162497 55.349185 11.089257 3.962341 -44.370531 36.240310 -39.653012 -4.199955 -0.378176 -19.043056 
0.478316 0.654432 0.684945 -30.794279 -2.262738 78.359859 8.057661 -10.870403 -36.435739 -6.916982 6.152573 103.185041 -2.193215 19.358553 -46.393359 0.000000 -0.000000 0.000000 -27.974395 -8.842348 -48.376317 2.675899 1.376235 92.239237 11.972148 -0.670544 -27.756556 0.000000 -0.000000 0.000000 -0.404704 3.821333 39.296870 2.307048 1.234326 -1.666931 1.280464 -0.209900 3.383561 -5.030080 9.012143 -26.782627 -1.336830 2.007675 -11.079022 -14.205353 -12.985796 -6.514756 -48.790163 -21.763669 9.909173 156.459353 -55.480171 -109.645922 56.513188 -20.544910 -5.491947 24.844039 16.208692 -3.302173 55.108886 10.894244 3.815249 -45.475954 36.584101 -41.078769 -4.458704 -0.362825 -19.954572 
0.478987 0.652536 0.680124 -30.966959 -2.203849 78.325718 8.109101 -11.074261 -36.964086 -6.715705 6.399986 104.459458 -2.407917 19.466537 -46.281243 0.000000 -0.000000 0.000000 -28.110223 -8.788468 -48.852371 2.903087 1.566540 92.876818 12.030115 -0.875210 -27.853595 0.000000 -0.000000 0.000000 -0.232021 3.684134 39.363236 2.718765 1.151134 -1.608761 1.509579 -0.370873 3.072145 -4.244454 6.832363 -27.479533 -0.944451 0.196528 -11.702958 -13.976960 -13.280131 -6.954476 -46.997479 -22.081624 8.802520 155.493785 -54.344006 -109.035970 56.476973 -20.553762 -5.349859 24.577173 16.633118 -3.629423 54.775947 10.762559 3.721075 -46.141084 36.742830 -42.136832 -4.621238 -0.472166 -20.300556 
0.479196 0.650614 0.677104 -31.117659 -2.285230 78.289478 7.867014 -10.980284 -37.002899 -6.676814 6.501735 105.100987 -2.581570 19.722515 -46.611793 0.000000 -0.000000 0.000000 -28.170314 -8.731308 -49.103115 3.032788 1.935158 93.256719 12.124031 -0.991596 -28.037267 0.000000 -0.000000 0.000000 -0.185762 3.532403 39.542232 2.968542 1.010438 -2.091589 1.749960 -0.423724 3.085381 -3.619313 5.033299 -27.967960 -0.495514 -1.409161 -12.374196 -13.762033 -13.371261 -7.236735 -45.502801 -22.187578 7.853831 155.062085 -53.653264 -109.162304 56.583097 -20.484113 -5.331701 24.416756 16.920964 -3.864643 54.460144 10.727092 3.581605 -46.025686 36.781468 -42.359671 -4.699255 -0.193082 -20.164806 
0.478819 0.648678 0.674938 -31.390591 -2.310325 78.243079 7.905566 -10.699436 -37.099500 -6.673619 6.606657 105.777010 -2.680190 19.466374 -46.444426 0.000000 -0.000000 0.000000 -28.247904 -8.695337 -49.271561 3.376830 2.028152 93.454877 11.867235 -1.132416 -28.204513 0.000000 -0.000000 0.000000 -0.086091 3.239560 39.606400 3.118533 0.880383 -2.414056 1.846732 -0.417076 2.953036 -3.321359 3.509536 -28.328456 0.101098 -2.674832 -12.552059 -13.151394 -13.284310 -7.275667 -44.572958 -21.708081 6.900432 155.009010 -52.984041 -109.415589 56.438549 -20.412463 -5.175352 24.087367 17.348484 -3.877411 54.625060 10.716817 3.251128 -46.008313 36.675200 -42.346389 -4.307477 -0.006731 -19.724357 
